<?xml version="1.0" encoding="UTF-8"?>
<!DOCTYPE svg PUBLIC "-//W3C//DTD SVG 1.1//EN" "http://www.w3.org/Graphics/SVG/1.1/DTD/svg11.dtd">
<svg version="1.1" xmlns="http://www.w3.org/2000/svg" xmlns:xlink="http://www.w3.org/1999/xlink" x="0" y="0" width="390" height="272" viewBox="0, 0, 390, 272">
  <g id="Layer_1">
    <path d="M84.071,82.144 C84.341,82.388 84.486,82.518 84.486,82.518 C84.486,82.518 84.303,82.458 83.959,82.348 C83.627,82.213 83.082,82.1 82.482,81.784 C82.17,81.635 81.828,81.47 81.453,81.291 C81.085,81.097 80.716,80.843 80.304,80.59 C79.496,80.064 78.609,79.406 77.752,78.567 C76.868,77.751 76.008,76.767 75.18,75.658 C74.393,74.529 73.606,73.292 72.968,71.932 C71.636,69.23 70.731,66.131 70.264,62.984 C70.056,61.408 69.905,59.822 69.922,58.258 C69.899,56.695 70.018,55.157 70.22,53.682 C70.408,52.207 70.747,50.797 71.113,49.483 C71.52,48.172 71.977,46.959 72.524,45.887 C73.023,44.8 73.651,43.876 74.22,43.092 C74.533,42.713 74.815,42.352 75.105,42.049 C75.408,41.758 75.704,41.492 75.956,41.251 C76.509,40.794 76.976,40.497 77.297,40.333 C77.614,40.157 77.846,40.065 77.846,40.065 C77.846,40.065 77.856,40.218 77.637,40.508 C77.392,40.775 77.043,41.243 77.043,41.765 L252.33,58.379 L76.361,44.795 L76.74,41.866 C76.605,42.128 76.21,42.406 76.051,42.714 C75.899,43.067 75.733,43.447 75.557,43.855 C75.256,44.692 74.951,45.632 74.698,46.687 C74.428,47.731 74.268,48.901 74.088,50.119 C73.952,51.352 73.827,52.646 73.795,53.996 C73.756,55.343 73.767,56.736 73.85,58.146 C73.922,59.557 74.071,60.984 74.279,62.4 C74.472,63.818 74.77,65.215 75.087,66.583 C75.446,67.937 75.806,69.273 76.28,70.518 C76.719,71.78 77.253,72.95 77.783,74.056 C78.354,75.136 78.912,76.162 79.523,77.052 C80.13,77.943 80.738,78.736 81.319,79.416 C81.621,79.751 81.902,80.064 82.162,80.353 C82.441,80.629 82.698,80.883 82.931,81.112 C83.393,81.586 83.807,81.897 84.071,82.144 M301.741,221.765 L128.934,207.276 C129.257,207.575 129.54,207.796 129.737,207.981 C130.009,208.224 130.152,208.354 130.152,208.354 C130.152,208.354 129.969,208.295 129.625,208.185 C129.294,208.05 128.749,207.937 128.147,207.621 C127.837,207.472 127.494,207.307 127.12,207.128 C127.117,207.127 127.114,207.126 127.112,207.124 L125.952,207.026 L126.006,206.449 C125.993,206.443 125.982,206.435 125.97,206.427 C125.163,205.9 124.275,205.244 123.418,204.405 C122.535,203.588 121.675,202.604 120.846,201.495 C120.059,200.366 119.273,199.128 118.634,197.769 C117.303,195.067 116.397,191.969 115.93,188.822 C115.723,187.246 115.572,185.661 115.587,184.096 C115.566,182.534 115.683,180.995 115.887,179.52 C116.074,178.044 116.412,176.635 116.778,175.32 C117.185,174.009 117.64,172.796 118.187,171.724 C118.687,170.638 119.311,169.713 119.878,168.929 C120.125,168.631 120.348,168.353 120.573,168.095 L120.583,167.99 L120.659,167.998 C120.692,167.962 120.724,167.92 120.756,167.886 C121.059,167.595 121.339,167.33 121.591,167.088 C122.144,166.631 122.58,166.335 122.9,166.169 C123.217,165.996 123.387,165.902 123.387,165.902 C123.387,165.902 123.271,166.056 123.052,166.345 C122.807,166.614 122.542,167.083 122.205,167.605 C122.124,167.762 122.028,167.95 121.938,168.124 L294.638,185.231 L120.767,171.06 C120.625,171.522 120.489,172.008 120.365,172.524 C120.095,173.568 119.935,174.74 119.754,175.956 C119.619,177.19 119.494,178.484 119.462,179.834 C119.423,181.181 119.433,182.573 119.517,183.983 C119.589,185.394 119.739,186.822 119.946,188.237 C120.138,189.655 120.436,191.053 120.753,192.42 C121.114,193.775 121.473,195.11 121.947,196.356 C122.386,197.618 122.92,198.787 123.45,199.893 C124.02,200.973 124.579,201.999 125.189,202.888 C125.53,203.389 125.869,203.848 126.205,204.284 L126.231,203.996 L301.741,221.765 z M125.425,198.852 L300.727,216.546 L125.146,201.883 L125.425,198.852 z M124.618,193.709 L299.712,211.326 L124.34,196.74 L124.618,193.709 z M123.811,188.565 L298.696,206.107 L123.534,191.596 L123.811,188.565 z M123.003,183.421 L297.682,200.888 L122.728,186.453 L123.003,183.421 z M122.197,178.278 L296.667,195.669 L121.922,181.31 L122.197,178.278 z M121.39,173.133 L295.652,190.45 L121.115,176.166 L121.39,173.133 z M289.563,155.801 L109.362,141.761 C109.565,142.259 109.751,142.715 109.946,143.092 C110.211,143.67 110.453,144.108 110.621,144.411 C110.784,144.721 110.87,144.886 110.87,144.886 C110.87,144.886 110.723,144.774 110.443,144.564 C110.176,144.343 109.74,144.044 109.292,143.566 C108.807,143.113 108.273,142.513 107.704,141.781 C107.433,141.406 107.145,141.004 106.842,140.582 C106.567,140.144 106.293,139.672 106.004,139.177 C105.462,138.178 104.907,137.069 104.438,135.853 C103.969,134.638 103.528,133.334 103.186,131.961 C102.464,129.221 102.038,126.229 101.891,123.231 C101.825,121.729 101.823,120.228 101.897,118.752 C101.972,117.276 102.107,115.827 102.323,114.432 C102.729,111.644 103.434,109.074 104.305,106.963 C104.725,105.904 105.207,104.964 105.703,104.169 C106.182,103.368 106.694,102.72 107.172,102.241 C107.388,101.991 107.628,101.788 107.84,101.628 C108.045,101.458 108.216,101.332 108.373,101.254 C108.677,101.087 108.84,100.996 108.84,100.996 C108.84,100.996 108.731,101.145 108.526,101.429 C108.412,101.561 108.303,101.748 108.196,101.962 C108.081,102.172 107.954,102.401 107.836,102.695 C107.83,102.708 107.827,102.721 107.823,102.732 L107.823,102.734 L282.46,119.268 L106.948,105.704 C106.819,106.298 106.74,106.923 106.619,107.6 C106.6,107.725 106.669,107.864 106.649,107.992 C106.515,108.929 106.473,109.921 106.473,110.982 C106.473,109.921 106.6,108.929 106.735,107.992 L283.644,124.488 L106.473,110.996 C106.473,111.724 106.185,112.485 106.142,113.261 C106.142,113.265 106.139,113.271 106.139,113.276 L284.489,129.706 L105.856,116.273 C105.84,116.995 105.831,117.726 105.832,118.465 L285.505,134.926 L105.884,121.492 C105.9,122.007 105.917,122.523 105.945,123.038 C105.952,123.252 105.971,123.465 105.981,123.68 L286.519,140.144 L106.191,126.72 C106.205,126.886 106.218,127.053 106.23,127.218 C106.278,127.671 106.328,128.116 106.376,128.563 L287.534,145.364 L106.773,131.624 C106.867,132.256 106.968,132.876 107.079,133.48 L288.549,150.583 L107.724,136.571 C107.862,137.161 108.008,137.732 108.154,138.276 C108.21,138.459 108.264,138.624 108.32,138.8 L108.334,138.627 L289.563,155.801 z M83.601,78.295 L259.119,94.913 L83.339,81.328 L83.601,78.295 z M82.586,73.075 L258.104,89.693 L82.324,76.108 L82.586,73.075 z M81.571,67.857 L257.089,84.474 L81.31,70.89 L81.571,67.857 z M80.556,62.637 L256.074,79.254 L80.294,65.671 L80.556,62.637 z M79.542,57.419 L255.06,74.036 L79.28,60.451 L79.542,57.419 z M78.526,52.199 L254.045,68.817 L78.266,55.233 L78.526,52.199 z M77.512,46.981 L253.03,63.598 L77.25,50.013 L77.512,46.981 z M315.551,222.047 C315.868,222.724 316.192,223.402 316.539,224.085 C316.539,224.085 138.608,211.737 123.64,208.863 C107.652,194.754 114.918,165.817 119.952,162.689 L312.227,177.488 C312.227,177.488 311.361,179.614 310.59,183.32 L374.046,139.009 L310.128,185.852 C309.946,186.995 309.785,188.233 309.662,189.568 L374.493,143.419 L309.493,191.993 C309.438,193.079 309.411,194.212 309.417,195.393 L374.939,147.828 L309.473,197.731 C309.518,198.753 309.593,199.804 309.696,200.881 L375.386,152.238 L309.954,203.132 C310.082,204.099 310.227,205.08 310.41,206.083 L375.834,156.647 L310.845,208.247 C311.043,209.155 311.274,210.08 311.522,211.011 L376.28,161.056 L312.111,213.086 C312.372,213.948 312.658,214.819 312.965,215.697 L376.728,165.465 L313.692,217.681 C314.008,218.5 314.346,219.324 314.704,220.154 L377.175,169.877 L315.551,222.047 z M106.388,145.943 C90.4,131.836 97.667,102.898 102.7,99.769 L294.975,114.569 C294.975,114.569 294.073,116.793 293.289,120.649 L374.046,89.648 L292.9,122.778 C292.721,123.886 292.563,125.095 292.438,126.39 L374.493,93.571 L292.271,128.503 C292.202,129.608 292.166,130.766 292.162,131.973 L374.939,97.493 L292.194,134.062 C292.229,135.145 292.291,136.256 292.39,137.405 L375.386,101.416 L292.604,139.461 C292.729,140.511 292.887,141.584 293.077,142.68 L375.834,105.338 L293.463,144.69 C293.674,145.71 293.914,146.742 294.188,147.792 L376.28,109.261 L294.729,149.752 C295.019,150.733 295.348,151.73 295.696,152.733 L376.728,113.183 L296.389,154.632 C296.751,155.58 297.147,156.536 297.569,157.499 L377.175,117.105 L298.396,159.328 C298.684,159.938 298.974,160.549 299.287,161.166 C299.287,161.166 121.357,148.819 106.388,145.943 M75.944,84.04 C59.956,69.933 67.222,40.994 72.257,37.866 L251.367,51.651 L264.424,52.942 C264.191,53.572 263.604,55.281 263.034,57.849 L359.838,41.212 L262.639,59.814 C262.437,60.926 262.249,62.148 262.097,63.48 L360.285,45.53 L261.907,65.462 C261.816,66.6 261.755,67.8 261.73,69.058 L360.731,49.848 L261.724,71.047 C261.739,72.186 261.789,73.363 261.875,74.579 L361.178,54.166 L262.05,76.563 C262.166,77.691 262.321,78.846 262.511,80.028 L361.626,58.484 L262.861,81.997 C263.078,83.111 263.323,84.243 263.613,85.397 L362.073,62.803 L264.141,87.338 C264.453,88.432 264.808,89.544 265.195,90.667 L362.52,67.12 L265.881,92.567 C266.289,93.642 266.742,94.73 267.225,95.826 L362.967,71.439 L268.073,97.673 C268.324,98.202 268.572,98.73 268.843,99.262 C268.843,99.262 90.913,86.915 75.944,84.04 M345.806,37.48 L366.599,33.652 L366.946,35.652 L314.534,44.199 L268.843,51.65 L345.806,37.48 z M380.726,79.707 L299.649,111.711 L298.926,109.815 L380.726,79.707 z M383.517,126.239 L313.052,175.535 L311.908,173.859 L383.517,126.239 z M384.744,166.409 C375.948,162.35 380.941,133.722 382.59,130.489 L386.357,127.507 L386.357,124.125 L371.769,124.948 L388.059,115.711 L387.996,112.455 C387.996,112.455 385.576,113.3 384.731,113.638 C375.936,109.58 380.936,87.042 382.584,83.807 L386.357,80.826 L386.357,77.443 L356.594,75.567 L373.851,70.043 L373.788,66.788 C373.788,66.788 371.369,67.633 370.523,67.972 C361.728,63.913 366.736,41.375 368.387,38.14 L372.169,35.159 L372.169,31.777 L216.912,19.937 L68.201,33.553 C57.799,41.164 55.709,74.737 71.903,88.548 L124.024,92.338 L98.687,95.457 C88.285,103.068 86.174,136.64 102.368,150.452 L150.155,153.927 L115.943,158.375 C105.542,165.987 103.429,199.559 119.622,213.371 L318.822,227.858 L388.109,168.481 L388.021,165.225 C388.021,165.225 385.589,166.071 384.744,166.409 M6.402,36.486 C6.216,35.888 6.088,35.141 6.203,34.887 C7.882,31.747 15.265,28.248 23.174,28.248 C26.599,28.248 29.695,28.892 32.377,30.165 C32.512,30.329 32.74,30.85 32.799,31.49 C32.809,31.605 32.813,31.708 32.81,31.802 C30.099,30.639 27.051,30.049 23.74,30.049 C16.778,30.049 9.278,32.906 6.402,36.486 M4.507,23.579 C6.432,20.506 13.197,17.32 20.65,17.32 C23.924,17.32 26.923,17.939 29.579,19.147 C29.797,20.887 30.884,25.598 31.614,28.225 C29.072,27.254 26.244,26.754 23.174,26.754 C16.595,26.754 9.589,29.202 6.3,32.384 C5.984,29.559 5.024,25.117 4.507,23.579 M29.677,17.55 C26.959,16.406 23.927,15.827 20.65,15.827 C13.742,15.827 6.546,18.565 3.707,22.112 C3.545,21.542 3.447,20.851 3.566,20.605 C5.226,17.499 12.452,14.04 20.167,14.04 C23.567,14.04 26.662,14.687 29.367,15.964 C29.525,16.219 29.647,16.955 29.677,17.55 M23.74,31.543 C27.147,31.543 30.245,32.203 32.945,33.504 L33.468,33.756 L33.842,33.311 C34.321,32.74 34.343,31.893 34.279,31.284 C34.206,30.59 33.942,29.658 33.443,29.124 C32.836,27.445 31.152,20.217 31.035,18.815 C31.125,18.581 31.182,18.233 31.172,17.668 C31.163,17.142 31.072,15.383 30.274,14.761 L30.14,14.679 C29.812,14.521 29.477,14.374 29.137,14.233 C28.809,12.767 28.106,9.712 27.295,6.74 C21.414,0.253 4.112,3.084 1.5,10.987 L3,18.807 C2.715,19.157 2.458,19.51 2.264,19.874 C1.705,20.824 2.246,22.777 2.692,23.558 C2.812,23.769 2.947,23.925 3.093,24.039 C3.702,25.666 5.096,32.953 4.904,34.152 C4.903,34.154 4.901,34.155 4.901,34.157 C4.304,35.171 4.992,37.207 5.38,37.884 C5.481,38.061 5.789,38.598 6.362,38.598 L6.882,38.503 L7.043,38.201 C8.727,35.052 15.999,31.543 23.74,31.543 M76.966,242.794 L76.669,248.919 L77.392,248.952 L77.392,248.953 L76.647,248.919 L76.921,242.794 C76.229,242.325 75.18,241.997 74.19,243.07 L71.823,221.836 C71.076,220.608 72.6,218.918 74.088,218.451 C75.455,218.021 76.786,218.795 78.007,220.63 L76.966,242.794 z M76.023,264.586 L75.012,243.988 C75.615,243.489 76.134,243.547 76.584,244.066 L76.023,264.586 z M73.178,242.418 C71.458,240.885 67.674,241.49 67.049,244.48 L59.661,225.927 L59.626,225.859 C59.591,225.807 59.555,225.761 59.52,225.711 C59.165,223.739 60.66,221.215 62.887,220.058 C64.367,219.288 67.348,218.535 70.733,222.029 C70.75,222.046 70.768,222.063 70.784,222.08 L73.2,242.418 L73.693,246.709 L73.178,242.418 z M63.993,245.845 L52.824,226.045 C53.295,225.078 54.324,224.369 55.44,224.258 C56.783,224.131 58.035,224.831 58.981,226.24 L66.35,244.745 C65.23,244.52 64.341,244.929 63.993,245.845 M69.786,220.208 C67.434,218.495 64.871,218.186 62.543,219.395 C60.981,220.207 59.746,221.636 59.136,223.148 C59.779,217.717 66.101,215.359 69.786,220.208 M78.62,220.342 C78.589,220.19 78.551,220.04 78.508,219.894 L78.613,220.332 L78.609,220.324 C76.674,217.336 74.692,217.42 73.685,217.738 C72.388,218.143 71.423,219.269 70.983,220.434 C71.543,214.454 77.285,215.818 78.508,219.894 L33.923,35.072 C31.618,33.866 29.15,33.113 26.518,32.831 L70.915,220.623 C70.869,220.762 70.826,220.902 70.796,221.041 C70.555,220.818 70.311,220.616 70.065,220.423 L24.868,32.831 C21.325,32.841 18.094,33.46 15.316,34.955 L58.851,224.054 C58.795,224.299 58.76,224.542 58.741,224.782 C58.49,224.54 58.237,224.342 57.987,224.179 L13.946,35.492 C11.472,36.516 9.265,37.915 7.848,40.424 C7.848,40.424 49.419,216.045 51.909,225.38 C52.084,222.841 55.355,221.228 57.5,223.904 C56.66,223.5 55.885,223.465 55.366,223.515 C53.9,223.66 52.602,224.605 52.061,225.922 L51.992,226.09 L63.848,247.109 C63.857,247.217 63.869,247.327 63.888,247.442 L76.771,269.286 L77.847,243.49 C77.847,243.49 77.931,243.462 77.931,243.424 L77.931,243.418 L78.814,220.544 L78.747,220.423 L78.657,220.343 L78.62,220.342" fill="#0A0B09"/>
  </g>
</svg>
